{"title":"Hanna [2011] BRRip XviD - CODY","uid":6691993,"size":840386834,"categoryP":"video","categoryS":"movies","magnet":"?xt=urn:btih:75df7143bc857184c8fadcca37bf77dc22673855&amp;dn=Hanna+%5B2011%5D+BRRip+XviD+-+CODY&amp;tr=udp%3A%2F%2Ftracker.openbittorrent.com%3A80&amp;tr=udp%3A%2F%2Fopen.demonii.com%3A1337&amp;tr=udp%3A%2F%2Ftracker.coppersurfer.tk%3A6969&amp;tr=udp%3A%2F%2Fexodus.desync.com%3A6969","seeders":0,"leechers":0,"uploader":"CODYBOSS1969","files":5,"time":1316625727,"description":"General\nComplete name                    : Hanna [2011] BRRip XviD - CODY.avi\nFormat                           : AVI\nFormat/Info                      : Audio Video Interleave\nFile size                        : 801 MiB\nDuration                         : 1h 51mn\nOverall bit rate                 : 1 009 Kbps\nWriting application              : VirtualDubMod 1.5.10.2 (build 2540/release)\nWriting library                  : VirtualDubMod build 2540/release\n\nVideo\nID                               : 0\nFormat                           : MPEG-4 Visual\nFormat profile                   : Advanced Simple@L5\nFormat settings, BVOP            : 4\nFormat settings, QPel            : No\nFormat settings, GMC             : No warppoints\nFormat settings, Matrix          : Default (H.263)\nCodec ID                         : XVID\nCodec ID/Hint                    : XviD\nDuration                         : 1h 51mn\nBit rate                         : 872 Kbps\nWidth                            : 720 pixels\nHeight                           : 296 pixels\nDisplay aspect ratio             : 2.40:1\nFrame rate                       : 23.976 fps\nColor space                      : YUV\nChroma subsampling               : 4:2:0\nBit depth                        : 8 bits\nScan type                        : Progressive\nCompression mode                 : Lossy\nBits/(Pixel*Frame)               : 0.171\nStream size                      : 692 MiB (86%)\nWriting library                  : XviD 1.2.0.dev47 (UTC 2006-11-01)\n\nAudio\nID                               : 1\nFormat                           : MPEG Audio\nFormat version                   : Version 1\nFormat profile                   : Layer 3\nCodec ID                         : 55\nCodec ID/Hint                    : MP3\nDuration                         : 1h 51mn\nBit rate mode                    : Constant\nBit rate                         : 128 Kbps\nChannel(s)                       : 2 channels\nSampling rate                    : 48.0 KHz\nCompression mode                 : Lossy\nStream size                      : 102 MiB (13%)\nAlignment                        : Aligned on interleaves\nInterleave, duration             : 42 ms (1.00 video frame)\nInterleave, preload duration     : 504 ms\nWriting library                  : LAME3.97 \nEncoding settings                : -m s -V 4 -q 2 -lowpass 17 -b 128\n\n\n\n\nIMDB link:                        &lt;a href=&quot; http://www.imdb.com/title/tt0993842/&quot; rel=&quot;nofollow&quot; target=&quot;_NEW&quot;&gt; http://www.imdb.com/title/tt0993842/&lt;/a&gt;\n\n\n\nSubtitles included               : English, Romanian\n\n\n\n\nPlease seed at least 1,5:1. This way this torrent has a chance to survive !\n\n\n\n\nThanks. Enjoy !!\n\n","torrent":{"xt":"urn:btih:75df7143bc857184c8fadcca37bf77dc22673855","amp;dn":"Hanna+%5B2011%5D+BRRip+XviD+-+CODY","amp;tr":["udp%3A%2F%2Ftracker.openbittorrent.com%3A80","udp%3A%2F%2Fopen.demonii.com%3A1337","udp%3A%2F%2Ftracker.coppersurfer.tk%3A6969","udp%3A%2F%2Fexodus.desync.com%3A6969"],"infoHash":"75df7143bc857184c8fadcca37bf77dc22673855","infoHashBuffer":{"type":"Buffer","data":[117,223,113,67,188,133,113,132,200,250,220,202,55,191,119,220,34,103,56,85]},"announce":[],"urlList":[]}}